<svg xmlns="http://www.w3.org/2000/svg" viewBox="0 0 512 275"><g fill="#EE3124"><path d="M58.3 224.8h-5.7l-6.9 32.3h7.1s2.4-11.4 2.5-12h3.4c6.8 0 13.8-3.6 13.8-11.8.1-8.5-9.2-8.5-14.2-8.5m6.9 9.2c0 3.7-3.4 5.4-6.7 5.4h-1.8c.2-.8 1.8-8.4 1.9-8.9h1.7c3.4 0 4.9 1.1 4.9 3.5M92.4 224.8h-8l-6.8 32.3h7.1s2.7-12.6 2.8-13.1h2.1c2.6 0 2.9 1.4 3.3 4l1.9 9.2h7.4L99 244c-.3-1.3-1-2.2-1.9-2.7 4.9-.7 7.9-3.9 7.9-8.6 0-2.3-.6-4.1-1.9-5.4-2.3-2.5-6.7-2.5-10.7-2.5m5.4 8.6c0 4.2-4.5 4.8-7.2 4.8h-1.9c.2-.8 1.5-7.2 1.6-7.8h2.3c3.2.1 5.2.3 5.2 3M131 224.2c-5.3 0-9.8 2-13.3 6-3.3 3.8-5.1 8.8-5.1 13.9 0 8.1 5.2 13.5 12.9 13.5 5.8 0 10.5-1.9 13.7-5.4 3.5-3.9 5.4-8.9 5.4-14.2 0-8.8-5-13.8-13.6-13.8m-4.7 27.7c-4.6 0-6.3-3.8-6.3-7.4 0-5.9 3.4-14.6 10.8-14.6 4.7 0 6.4 3.8 6.4 7.4 0 6-3.9 14.6-10.9 14.6M157.9 224.8l-6.8 32.3h7.1s2.8-13.3 2.9-13.8h10.6l1.1-5.7h-10.6c.2-.8 1.4-6.5 1.5-7h11.1l1.3-5.7h-18.2zM188.3 224.8l-6.8 32.3h19.6l1.2-5.7h-12.5c.2-.8 1.6-7.6 1.7-8.1h11.1l1.1-5.7h-11.1c.2-.8 1.4-6.5 1.5-7h12.4l1.1-5.7h-19.3zM229.9 224.2c-5.6 0-12.2 2.6-12.2 9.9 0 4.8 3.4 6.7 6.4 8.4 2.4 1.3 4.4 2.5 4.4 4.8 0 3.1-2.8 4.6-5.7 4.6-2.7 0-5.4-1.1-7.6-2.1l-.4-.2-1.9 6.1.3.1c3.3 1.2 6.3 1.8 9.2 1.8 8.5 0 13.4-4 13.4-10.9 0-5.2-3.7-7.4-6.7-9.1-2.2-1.3-4.1-2.4-4.1-4.4 0-2.6 3.1-3.2 4.9-3.2 2.1 0 4.4.6 6.4 1.6l.4.2 1.7-6-.3-.1c-2.2-1-5-1.5-8.2-1.5M261.5 224.2c-5.6 0-12.2 2.6-12.2 9.9 0 4.8 3.4 6.7 6.4 8.4 2.4 1.3 4.4 2.5 4.4 4.8 0 3.1-2.8 4.6-5.7 4.6-2.7 0-5.4-1.1-7.6-2.1l-.4-.2-1.9 6.1.3.1c3.3 1.2 6.3 1.8 9.2 1.8 8.5 0 13.4-4 13.4-10.9 0-5.2-3.7-7.4-6.7-9.1-2.2-1.3-4.1-2.4-4.1-4.4 0-2.6 3.1-3.2 4.9-3.2 2.1 0 4.4.6 6.4 1.6l.4.2 1.7-6-.3-.1c-2.2-1-5-1.5-8.2-1.5M283.3 224.8l-6.8 32.3h7.4l6.8-32.3M315.4 224.2c-5.3 0-9.8 2-13.3 6-3.3 3.8-5.1 8.8-5.1 13.9 0 8.1 5.2 13.5 12.9 13.5 5.8 0 10.5-1.9 13.7-5.4 3.5-3.9 5.4-8.9 5.4-14.2 0-8.8-5-13.8-13.6-13.8m-4.7 27.7c-4.7 0-6.3-3.8-6.3-7.4 0-5.9 3.4-14.6 10.8-14.6 4.7 0 6.4 3.8 6.4 7.4 0 6-3.9 14.6-10.9 14.6M362.9 224.8l-5 23c-.6-2.3-6.5-23-6.5-23h-8.6l-7 32.3h6.8s4.3-20.8 4.8-23.2c.6 2.3 6.3 23.2 6.3 23.2h8.8l7-32.3h-6.6zM403.6 224.8l-5 23c-.6-2.3-6.5-23-6.5-23h-8.6l-7 32.3h6.8s4.3-20.8 4.8-23.2c.6 2.3 6.3 23.2 6.3 23.2h8.8l7-32.3h-6.6zM423.9 224.8l-6.8 32.3h19.6l1.2-5.7h-12.5c.2-.8 1.6-7.6 1.7-8.1h11.1l1.1-5.7h-11.1c.2-.8 1.4-6.5 1.5-7h12.4l1.1-5.7h-19.3zM457.3 251.4c.2-.9 5.7-26.6 5.7-26.6h-7.1l-6.9 32.3h19.5l1.3-5.7h-12.5z"/></g><path fill="#FFF" d="M476.4 63.2c8.1 3.4 12.1 9.8 12.1 19.5v90.1c0 9.8-4 16.2-12.1 19.5-31.4 12.9-132.5 23.9-220.7 23.9-88.2 0-189.3-10.9-220.7-23.9-8.1-3.4-12.1-9.7-12.1-19.5v-90c0-9.8 4-16.2 12.1-19.5 9.8-4 26.5-7.9 47.4-11.3l24.8-3.5c43.4-5.5 98.1-9.1 148.6-9.1 88.1 0 189.2 10.9 220.6 23.8"/><path fill="#EE3124" d="M481.6 82.8c0-.9 0-1.8-.1-2.6 0-.2-.1-.4-.1-.6-.1-.8-.2-1.5-.4-2.1 0-.1-.1-.2-.1-.3-.2-.8-.5-1.4-.7-2.1-1.3-2.8-3.5-4.6-6.4-5.8-20.9-8.6-78.3-17.2-144.5-21.2-.4 0-.9-.1-1.3-.1l-5.7-.3c-.7 0-1.4-.1-2.1-.1l-5.4-.3c-.8 0-1.6-.1-2.4-.1-1.8-.1-3.5-.2-5.3-.2-.5 0-1.1 0-1.6-.1-3.3-.1-6.5-.3-9.8-.4-1.3-.1-2.6-.1-3.9-.1-1.3 0-2.6-.1-3.9-.1-1.5 0-2.9-.1-4.4-.1-1.2 0-2.5-.1-3.7-.1-1.5 0-3.1-.1-4.6-.1-1.2 0-2.3 0-3.5-.1-1.7 0-3.4 0-5.1-.1h-11.1c-6 0-12 .1-18.1.1h-.8c-5.7.1-11.5.2-17.2.4-.5 0-1.1 0-1.6.1l-16.2.6c-.8 0-1.6.1-2.3.1-5.1.2-10.2.5-15.2.8-1 .1-1.9.1-2.9.2-4.8.3-9.5.6-14.2.9-1.1.1-2.2.2-3.2.2-4.5.3-9 .7-13.4 1.1-1.1.1-2.3.2-3.4.3-4.3.4-8.6.8-12.8 1.2l-3.3.3c-4.2.4-8.3.9-12.3 1.3-.6.1-1.2.1-1.7.2-.6.1-1.2.2-1.9.2-.3 0-.6.1-.9.1-2.1.3-4.2.5-6.3.8l-.6.1c-9.5 1.2-18.3 2.5-26.4 3.9h-.2c-1.6.3-3 .5-4.5.8-.1 0-.2 0-.4.1-1.3.2-2.7.5-3.9.7-15.2 2.8-27.1 5.9-34.4 8.9-5.2 2.1-8 5.9-7.8 13.9v89.5c0 .9 0 1.8.1 2.6 0 .2.1.4.1.6.1.8.2 1.5.4 2.1 0 .1.1.2.1.3.2.7.5 1.4.8 2.1 1.3 2.8 3.5 4.6 6.4 5.8 20.8 8.6 78.2 17.2 144.3 21.2.5 0 1.1.1 1.6.1 1.8.1 3.7.2 5.5.3.7 0 1.5.1 2.2.1 1.8.1 3.5.2 5.3.3.8 0 1.7.1 2.5.1 1.7.1 3.4.2 5.2.2.8 0 1.7.1 2.5.1 2.9.1 5.9.2 8.8.3 1.3 0 2.6.1 4 .1 1.3 0 2.6.1 3.9.1 1.4 0 2.8.1 4.2.1 1.3 0 2.5.1 3.8.1 1.5 0 3 .1 4.5.1 1.2 0 2.3 0 3.5.1 1.7 0 3.4 0 5.1.1h11.1c6 0 12.1-.1 18.1-.1h.8c5.7-.1 11.5-.2 17.2-.4.5 0 1.1 0 1.6-.1 5.4-.2 10.8-.4 16.1-.6.8 0 1.6-.1 2.4-.1 5.1-.2 10.1-.5 15.1-.8 1-.1 2-.1 3-.2 4.7-.3 9.4-.6 14-.9 1.2-.1 2.3-.2 3.5-.3 4.4-.3 8.8-.7 13.1-1 1.3-.1 2.5-.2 3.8-.3 4.2-.4 8.3-.8 12.3-1.2 1.3-.1 2.6-.3 3.8-.4 3.9-.4 7.8-.8 11.6-1.3.7-.1 1.5-.2 2.2-.2 3.1-.4 6.1-.7 9.1-1.1l.6-.1c9.5-1.2 18.3-2.5 26.4-3.9h.2c1.6-.3 3.1-.5 4.6-.8h.2c1.3-.2 2.7-.5 4-.7 15.2-2.8 27.1-5.9 34.4-8.9 5.2-2.1 8-5.9 7.8-13.9v-89c.3-.1.2-.2.2-.4zM38.2 182.1s.1 0 0 0c-.8-.4-1.5-.9-2.2-1.4l-.1-.1c-.6-.6-1-1.2-1.4-1.9-.1-.1-.1-.3-.2-.4-.3-.7-.6-1.6-.8-2.5 0-.2 0-.4-.1-.6-.1-.9-.2-1.8-.2-2.8V83.6c0-6.1 2-9.5 6.8-10.7 6.5-1.6 21.7-3.1 41.5-4.5l24.5-1.5c49.7-2.8 114-4.6 149.7-4.6 53.8 0 172.2 4.3 208.4 9.4 3 .4 5.6.9 7.4 1.3l1.8.6c.9.4 1.6.9 2.2 1.4l.1.1c.6.5 1 1.2 1.4 1.9.1.1.1.3.2.4.3.7.6 1.5.8 2.5 0 .2.1.4.1.6.1.9.2 1.8.2 2.8V172c0 6.1-2 9.5-6.8 10.7-6.4 1.6-21.6 3.1-41.3 4.5l-25 1.6c-49.7 2.8-113.7 4.6-149.4 4.6-53.8 0-172.2-4.3-208.4-9.4-3-.4-5.6-.9-7.4-1.3-.6-.1-1.2-.3-1.8-.6z"/><path fill-rule="evenodd" clip-rule="evenodd" fill="#FFF" d="M113.6 175.3c-.9-3.3-2.9-5.8-4.7-8-.5-.6-.9-1.2-1.4-1.8-3.9-5.2-7.3-10.2-11.1-15.7-1.2-1.7-6.1-10.2-8.3-14.2-.2-.7-.5-1.4-1.1-2.1l-.5-1-.5-.2-.4-.4c-.2-.5-.4-1-.5-1.4-.2-.5-.3-1-.5-1.4-.5-1.4-1-2.7-1.5-4-1.1-2.8-2.1-5.4-3.1-8.5-.3-.8-.6-1.6-.9-2.5-.1-.4-.4-.9-.5-1.4.9-1.1 2.1-3.1 1.8-5.7-.4-3.4-3.1-5.2-4.7-6.3-.1-.1-.2-.1-.3-.2-.2-.9-.3-2.2-.5-3.2-.1-1.1-.3-2.2-.4-3.3-2.2-13.6-3.3-29.6-4.2-44.8-.1-2.5-.3-5-.5-7.4-.3-3.8-.6-7.3-.6-10.7 0-1.4.1-3.9.4-5.5.1-.4.3-.7.4-1.1.7-1.6 1.9-4.4.8-8.6-.1-.3-.1-.6-.2-.9-.1-.8-.3-1.8-.7-2.9-.5-1.2-1.3-2.3-2.3-3.1-.3-.3-1-.6-1.2-1-.2-.4.1-1.2.1-1.7 0-1-.1-1.6-.5-2.4-.5-1-1-1.9-2-2.6-.4-.3-.8-.6-1.2-.8-.8-.2-2.1-.5-3.2-.5-.8 0-1.5.1-2.1.3-1.6.4-3.1 1.5-4 2.9-.7 1.2-.9 2.6-.7 4 0 .3 0 .5.1.8 0 0-.1.1-.2.1-1 .8-2.5 2-3.5 3.9-.6 1.3-.8 2.5-1 3.5 0 .3-.1.6-.2.8l.1.7c-.3 1.1-.8 2.9-.5 4.9.3 1.7 1 2.9 1.4 3.8.1.1.1.2.2.3.1 1 .2 3.2.2 5.1 0 3.4-.4 7-.8 10.8-.3 2.5-.6 4.9-.8 7.4-1.4 17.8-3.1 32.8-5.3 44.6-.2 1-.3 2-.5 3-.2 1.2-.4 2.6-.6 3.5-.1.1-.3.2-.4.3-1.6 1-3.9 2.6-4.5 5.7-.6 2.9.7 5 1.5 6.2-.2.8-.6 1.8-.9 2.5l-.5 1.3c-1.5 4-2.8 7.3-4.5 11.2l-.4 1c-.2.5-.4 1.1-.6 1.8-.1.3-.3.8-.4 1.2-1.3.1-3 .5-4.6 1.8l-.7.6-.5.8c-1.8 3-1.5 5.9-1.3 7.9 0 .4.1.8.1 1.1-.3.8-1.8 2.7-2.7 3.8-.6.8-1.2 1.5-1.8 2.2l-2.5 3.5c-1.1 1.5-2.1 3-3.1 4.3-1.3 1.8-2.8 3.6-4.3 5.4-2.7 3.2-5.5 6.6-7.5 10.6l-1.5 3c-.6 1.3 0 3 1.4 3.5 1.1.4 2.1.8 3.2 1.2 2.4.9 5 1 7.3 1h4.3c.9 0 1.8.1 2.8.1 3.4.2 6.5.2 8.7-.5 2.9-.9 4.5-3.3 5.1-4.1l.8-1.2.1-1.5c.8-9.5 10.7-17 22.6-17 11.9 0 21.9 7.4 22.6 17l.1.8.3.8c.5 1.2 1.7 4.2 5 5.5 1.5.6 3.4.8 6.6.8 1.4 0 3 0 4.4-.1 1.1 0 2-.1 3-.1.8 0 1.6 0 2.4.1 1 0 2 .1 2.9.1 1.9 0 4.3-.1 6.5-1l4.6-1.9-1.4-4.8z"/><path fill="#034EA2" d="M103 168.9c-3.8-5.2-7.2-10-11.2-15.8-1.3-1.8-5.8-9.7-8.2-14 1.3-.4 2.5-.8 3.8-1.2 2-.7 2.3-5.8 3.7-6.3-1.9.7-3.8 1.3-5.8 1.9l-5.1-.2c-.3-.8-.5-1.5-.7-2.1-1.6-4.3-3.1-7.9-4.6-12.7-.7-2.2-2.1-4.9-2-6.4.1-1.6 2.3-2.8 2.1-4.2 0-.4-.3-.8-.7-1.2h-.1c-1.1-1-3.1-1.9-3.5-2.9-.9-2-1-5.4-1.5-8.6-2.3-14-3.4-30.5-4.2-45.4-.3-6.4-1.2-12.5-1.1-18.5 0-2.2.1-4.7.5-6.6.6-2.5 2.1-3.6 1.2-6.9-.3-1-.4-2.4-.7-3.1-.6-1.5-2.7-2.2-3.4-3.4.1-.6.2-1.2 0-1.7-.2-.6-.5-.9-.8-1.1-.1-1 .4-2.8-1-2.9-.2 0-.5 0-.7.1-.8.2-.5.6-.5 1.3.1 1.2.2 0 .1 1.2h-.1c-.7.2-1.5.7-1.3 2.3v1.2c-.9.9-2.3 1.6-2.9 2.8-.4.8-.4 2.2-.7 3.3-.3 1.1-.7 2.2-.5 3.3.2 1.2 1.3 2.3 1.6 3.7.3 1.5.4 4.6.4 6.2.1 6-1.1 12.3-1.6 18.7-1.1 14.5-2.8 31.1-5.4 45.2-.6 3.1-.8 6.3-1.7 8.4-.7 1.6-4.1 2.7-4.4 4.2-.3 1.5 1.6 2.5 1.8 4.1.2 1.6-1.1 4.5-1.9 6.8-1.6 4.4-3.2 8.1-5 12.4-.7 1.6-1.5 5-2.8 5.8-1.2.8-3.4.2-4.3 1.1-1.4 2.3-.1 5-.6 7.3-.5 2.5-3.7 5.7-5.4 8-2 2.8-3.9 5.5-5.6 7.8-3.9 5.4-8.6 9.8-11.4 15.3 2.6 1 6.1.6 9.6.6 3.3 0 7.4.6 9.9-.1.8-.2 1.4-1 2-1.8 1-12.3 13.3-22.1 28.2-22.1s27.2 9.8 28.2 22.1c.4 1 .9 2 1.8 2.3 2.1.8 8.9.3 12 .3 3.7 0 7.3.5 9.6-.5-.8-3-3.2-5.4-5.1-8zm-30.8-35.1c.3.4.6.7.9.9.6.3 1.2.4 1.8.4h.4v.6c-9.6 1.9-19.4 2.7-29.2 2.9 4.2-3.2 8.1-6.8 12-10.4 4.5 2.5 9.2 4.4 14.1 5.6zm-2.6-7.1c.3.9.6 1.7.9 2.7-3.2-1-6.3-2.3-9.3-3.9 2-1.9 4-3.9 6.1-5.8.1.3.2.5.3.8.6 2.3 1.3 4.2 2 6.2zm-2-14.3c0 .1-.3.5-.4.7-.4.6-.9 1.3-1 2.3 0 .3.1.6.1.9-2.7 2.6-5.4 5.2-8.2 7.6-3-1.8-5.9-3.7-8.6-6 .1-.5.3-.9.4-1.3 2.4 0 4.8-.1 7.2-.6 3.5-.8 6.9-2.2 10.3-3.7l.2.1zm-18-.8c.7-.5 1.6-1.2 1.9-2.1.5-1.2.7-2.8.9-4.5.1-.6.2-1.3.3-1.9 1.5-8.8 2.7-19.9 3.6-33 .3-4.4 2.1-36 2-40.4 0-1-.1-3.5-.2-4.7-.1-.7-.4-1.3-.6-1.8-.2-.3-.3-.6-.4-.9-.1-.4.1-.9.2-1.5l.1-.5c.1-.3.1-.7.2-1 .1-.4.1-.9.2-1.1.2-.4.4-.8.7-1.1.2-.3.5-.6.7-1v.2c0 .5-.1 1.1.3 1.9.1.2.1.5.1.9.1.4.1.9.2 1.3.3 1.2.1 1.8-.3 2.7-.2.5-.4 1.1-.5 1.7-.2 1-.1 2.1.1 3.2.1.6.2 1.3.2 1.9-.1 4.5.9 36.1 1.1 40.3.6 11.9 2.2 24.6 3.4 33.2.1.8.2 1.5.3 2.3.2 1.6.3 3.2.8 4.3.1.2.2.3.3.4-1.9.7-3.7 1.4-5.6 2-3.3 1-6.9.8-10.3.7-.1-.1-.1-.1-.1-.2-.1-.2-.3-.5-.4-.5 0-.2.5-.6.8-.8zm-9.2 23.3h.4c.6-.1 1.4-.1 2.1-.6 1-.7 1.5-2 2-3.9.1-.4.2-.7.3-1 1-2.6 1.9-5 2.8-7.6 2.2 1.7 4.5 3.3 6.8 4.8-4.5 3.8-9.3 7.3-14.6 10.4.1-.9 0-1.5.2-2.1zm52.5 33.4c-.5 0-1-.1-1.8-.1s-1.2.1-1.3.1c-.2-.2-.4-.6-.7-1.1-1.8-2.9-6.1-9.8-16.9-16.5-3.4-2.1-9-3.3-15.5-3.3-5.4 0-10.3.8-13 2.3-10.3 5.5-13.4 9.2-16.7 16l-.4.8c-.3.6-.9 2-1.2 2.2-.7.2-1.4.2-2.3.1-.6 0-1.2-.1-2.1-.1h-.5c1.7-2.7 4.9-7 7.6-10.5 2.2-2.8 4-5.3 5-6.8l3.7-5.7c.1-.2.3-.5.5-.7 13.1-.2 26.2-.9 38.8-3.9.9 1.8 2.8 4.5 5.9 8.7.9 1.3 1.7 2.3 2 2.8 2.7 4.3 4.9 7.7 7.4 11.6.3.5.7 1 1 1.4.6.9 1.3 1.7 1.7 2.6-.5.2-.9.2-1.2.1z"/><g fill="#EC5A4F"><path d="M468 86.8c.6-.2 1.6-1 1.6-2.4 0-1.8-1.2-2.8-3.3-2.8h-2.6c-.5 0-.6.2-.6.6v7.6c0 .2 0 .4.1.5.1.1.3.1.4.1h1c.6 0 .6-.5.6-.6v-2.7h.6l1.8 2.9c.1.2.2.4.6.4h1.2c.3 0 .4-.1.4-.2.1-.2 0-.4-.1-.6l-1.7-2.8zm-2.7-3.4h1c1 0 1.2.5 1.2 1 0 .7-.3 1-.9 1h-1.2v-2z"/><path d="M466.1 77.7c-4.7 0-8.4 3.7-8.4 8.4s3.7 8.4 8.4 8.4 8.4-3.7 8.4-8.4-3.7-8.4-8.4-8.4zm0 15.1c-3.7 0-6.6-2.9-6.6-6.7 0-3.7 2.9-6.7 6.6-6.7 3.7 0 6.6 2.9 6.6 6.7 0 3.7-2.9 6.7-6.6 6.7z"/></g><g><g fill="#EE3124"><path d="M466.2 148.5c-9 14.1-33.9 20.1-37.9 2.6-2.8 6.3-9.4 10.7-15.7 10.5-3.8-.2-6.9-1.6-9-4.2-1.6-1.9-2.4-4.4-2.6-7.1-.1-1.9.1-4 .7-6.1 1.8-6.2 9.8-16.7 14-21.8 0 0-4.1-.5-9.5-2.7-2.6 13.1-17.5 42-32.1 42-3.7 0-6.7-1.2-8.6-3.5-2.6-3.1-3.2-8.2-1.3-14.2 2.7-8.5 10-22.5 14-28.3.5-.7 1.3-1.6 2.3-1.6.6 0 1.3.3 1.9.8 2.3 2.2 3.4 7.5.8 13.3l-3.6 7.3c-2 3.8-4.2 8.2-5.4 11.5-1.9 5.2-1.8 8.1-1 9.1.2.3.7.6 1.8.5 7.6 0 24.8-26.2 26.1-39.3-4.5-2.6-1.6-10.4 1-13 1.7-1.7 3.6-.6 4.3.1 3.8 3.7 11.4 12.4 20.3 13.2 4.9.4 2 3.7-1.8 8.2-6.6 7.7-13.3 17-14.6 21.7-.9 3.5-.7 6.8.7 8.4.5.7 1.2 1 2.1 1 3.8.2 11.2-6 14.8-14.6v-.2c1.5-13.8 15.9-32.3 30-28.9 8.9 2.2 5.6 23.3-20.5 31.8-.1 1-.1 1.9-.1 2.8.2 2.4.8 4.5 1.9 6 1.2 1.5 2.8 2.4 4.7 2.5 10.4.5 17.1-9.6 19.7-14 .5-.6 4.7 3 2.6 6.2m-27.7-8.7c2.2-.9 8.5-3.9 13.1-9.7 3.8-5.3 4.7-9.8 3.9-10.4-.2-.2-.6-.2-1.1-.1-3.2.7-10.2 6.6-14.2 15.6-.1 0-1.1 2.8-1.7 4.6M319.8 106.1c1.6-3 7.4-15.8 14-15.9 7.9-.1 1.3 11.7-2.9 20.8-5.1 11-11.7 22.6-13.7 32.7-2.1 11 4.4 18.4 13.8 18.4 20.1 0 39.7-37.5 42.2-60.1.8-7-.9-15.6-3.2-15.6-1.5 0-10.8 4.5-11.1 7.4-.1.7.3 2.1 1.1 4 2.5 6.3 2.3 13.2 1.6 18.8-1.6 14.4-15.7 37.3-26.1 37.3-2.7 0-5.5-1.4-4.9-6.5 1.1-9.8 13.9-32.2 19.4-46.4 4.7-12.2-2.1-19.3-11.1-19.3-14.4.1-21.6 15.1-22.1 16.1-.6 1.1-.9 2-1.2 3l3 5.5c.2.4.9.3 1.2-.2M298.8 151.1c3.4-4.3 5.8-9.7 6.1-10.8.8-2.5 1.3-5.5-.7-7.5-.8-.9-1.5-.6-1.8.2-1.7 4.1-6.1 10.4-9.4 13.8-4.3-3.9-7.6-7.7-10.4-12.2.6-.3 5.2-3 5.2-3 5.4-3.1 10.5-6.6 9.9-12.5-.5-4.8-7.6-6.6-12.6-5.8-8 1.2-12.4 6.1-13.2 10.4-.6 3.1-.5 5.4 1.5 9.8-5.4 2.8-8.3 4.9-10 7-2.5 2.9-3.5 6-3.3 9.1.3 4.6 3.2 8.9 7.5 10.7 8.1 3.4 20.2 1.9 26.7-4.3 13 7.8 17.5 3.6 19.1 2.8 1-.7 1-.9.9-1.6-.1-.2-.4-1-1.7-1.1-5.7.1-9.2-1.8-13.8-5m-7.9-31c.5 2-.5 4.2-5.5 7.2-1.8 1.1-3.4 2-5.4 2.9-.8-1.8-1-3.2-1.1-4.6-.2-1.4 0-2.7.4-3.8 1-2.7 3.1-4.5 5.9-4.9 3.5-.6 5.1.9 5.7 3.2m-21.3 28.8c-.5-2.8.7-5.9 3-7.8 1.1-.9 2.3-1.8 3.5-2.6 3.2 5.3 7.2 9.8 11.7 13.1-3.6 3.2-9.3 5.2-13.6 3.4-2.7-1.2-4.1-2.9-4.6-6.1"/><path d="M395 98.3c-.6-2.9-1.2-6.4-2.6-6.4-1.2 0-8.4 3.5-8.7 5.8-.1.6.2 1.7.8 3.2 1.3 3.1 1.6 6.5 1.6 9.6 0 1.8.4 4.7 2.8 1.3 0 0 7.1-8.4 6.1-13.5M250.5 142.4c-2.7 4.4-9.3 14.5-19.7 14-1.9-.1-3.5-1-4.6-2.5-1.2-1.5-1.8-3.6-1.9-6-.1-.9 0-1.8.1-2.8 26.1-8.5 29.4-29.6 20.5-31.8-14.1-3.4-28.5 15.1-30 28.9-.1 1-.2 1.9-.2 2.8-12.3 8.8-23.1 14.2-20.4-1.9 8.2-6.7 18.3-15.9 25-25.6 1.2-1.6 2.2-3.2 3.1-4.9 7.3-12.8 9.3-27.2 1.9-29.2-6.1-1.7-22.3 1.8-38.9 51.1-1.1 3.3-2.1 7.6-2.5 10.6-12.2 8.7-22.8 13.9-20.2-2.1 8.2-6.7 18.3-15.9 25-25.6 1.2-1.6 2.2-3.2 3.1-4.9 7.3-12.8 9.3-27.2 1.9-29.2-6.1-1.7-22.3 1.8-38.9 51.1-.9 2.8-1.7 6.2-2.3 9.1v-.2c-4.5 6.3-8 9.6-14.7 11.3-1.6.3-3.3.5-4.9.5-10.4 0-16.8-7.1-15.1-16.9 1.6-9 9.4-16.4 17.6-16.4 2.9 0 6 .6 7.1.6 2.1 0 4-5.3 4.3-7.1.2-1.1-.9-1.1-2.9-1.1-9.9 0-9.7-6.4-9-10.6 1.5-8.8 9.2-17.1 15.7-17.1 4.8 0 6.3 4 6.3 9.4 0 2.9.5 4.2 1.5 4.2 1.8 0 8.2-6.4 8.5-8.6 0-.3.4-9.2-14.7-9.2-15.9 0-30.5 9.4-32.4 20.8-1.3 7.4 2.6 12.3 9.7 15-8.9 1.8-13.7 3.7-19 7.6-5.4 4.1-8.9 9.4-10 15.5-2.2 12.6 7.3 21 23.9 21 10.1 0 18.7-2.7 27.8-8.7 2.4 10.6 14.7 12 31.3-1.3 1.8 12 14.8 13.9 32.6-.8 4.2 17.2 28.9 11.2 37.9-2.9 2.1-3.2-2.1-6.8-2.5-6.1m-23.6-7.2c4-9 10.9-14.9 14.2-15.6.5-.1.9-.1 1.1.1.9.6 0 5.1-3.9 10.4-4.6 5.8-10.8 8.7-13.1 9.7.7-1.8 1.7-4.6 1.7-4.6M221 91.6c3.2-.6.2 8.8-4.6 17.7-6.2 11.7-13 18.2-20.7 25.5 3.6-11.6 16.4-41.5 25.3-43.2m-31.6 0c3.2-.6.2 8.8-4.6 17.7-6.2 11.7-13 18.2-20.7 25.5 3.6-11.6 16.4-41.5 25.3-43.2"/></g></g></svg>